<mxfile host="app.diagrams.net" modified="2023-07-11T10:29:18.229Z" agent="Mozilla/5.0 (Windows NT 10.0; Win64; x64) AppleWebKit/537.36 (KHTML, like Gecko) Chrome/114.0.0.0 Safari/537.36" version="21.6.1" etag="N02M7qBy0jpat0pNbPmJ" type="github">
  <diagram name="Trang-1" id="L-F-mDsavNvcq75mPaBo">
    <mxGraphModel>
      <root>
        <mxCell id="0" />
        <mxCell id="1" parent="0" />
      </root>
    </mxGraphModel>
  </diagram>
</mxfile>
